<svg width="136" height="206" viewBox="0 0 136 206" fill="none" xmlns="http://www.w3.org/2000/svg">
<g clip-path="url(#clip0)">
<path d="M0 135.348H136V0H0V135.348Z" fill="#C18F07"/>
<path d="M68.1018 24.2273L84.6768 33.7355C84.6768 33.7355 86.3088 34.4799 87.0738 35.7826C87.7538 36.95 87.8048 38.202 87.8048 38.202V53.0564C87.8048 53.0564 87.8728 54.8836 87.3118 55.9664C86.7848 57.0323 86.1558 57.5229 86.1558 57.5229L70.8388 66.642C70.8388 66.642 69.3768 67.6064 68.1018 67.6064C66.8268 67.6064 64.9738 66.642 64.9738 66.642L50.6428 58.1997C50.6428 58.1997 50.0138 57.9966 49.0278 56.8293C48.0588 55.6619 48.1948 53.6147 48.1948 53.9193V37.8974C48.1948 37.8974 48.0928 36.9331 48.8748 35.8672C49.8948 34.4799 50.8298 34.1246 50.8298 34.1246L68.1018 24.2273Z" fill="white"/>
<path d="M27.2001 24.9039V30.2332H47.2091L56.4911 24.9039H27.2001Z" fill="white"/>
<path d="M108.8 24.9039H79.7639L89.0459 30.2332H108.8V24.9039Z" fill="white"/>
<path d="M93.262 40.8751H108.8V35.5457H93.211C93.262 35.8672 93.262 36.0533 93.262 36.0533V40.8751Z" fill="white"/>
<path d="M42.7551 35.5627H27.2001V40.892H42.7551V35.698C42.7551 35.698 42.7551 35.6473 42.7551 35.5627Z" fill="white"/>
<path d="M108.817 46.2046H93.2788V51.517H108.817V46.2046Z" fill="white"/>
<path d="M27.2001 51.517H42.7551V46.2046H27.2001V51.517Z" fill="white"/>
<path d="M91.1539 60.7035L88.7059 62.1585H108.8V56.846H93.1599C93.0749 57.4889 92.9219 58.1826 92.6329 58.724C91.9529 60.0775 91.1539 60.7035 91.1539 60.7035Z" fill="white"/>
<path d="M43.8091 59.8239C43.0611 58.9272 42.8231 57.6414 42.7721 56.8293H27.2001V62.1587H46.8521L45.8491 61.5665C45.8661 61.5665 45.0501 61.3127 43.8091 59.8239Z" fill="white"/>
<path d="M70.8053 72.7832H108.8C108.8 72.5971 108.8 72.411 108.8 72.208V67.4539H79.7643L71.6043 72.3095C71.6213 72.3264 71.2983 72.5464 70.8053 72.7832Z" fill="white"/>
<path d="M55.9131 67.471H27.2001V72.2251C27.2001 72.4112 27.2171 72.5973 27.2171 72.8004H65.1611C64.5661 72.5466 64.1581 72.3436 64.1581 72.3436L55.9131 67.471Z" fill="white"/>
<path d="M106.846 83.4422C107.458 81.6996 107.934 79.9232 108.257 78.1129H70.7375V83.4422H106.846Z" fill="white"/>
<path d="M27.7442 78.1296C28.0672 79.9399 28.5432 81.7163 29.1552 83.4589H65.2802V78.1465L27.7442 78.1296Z" fill="white"/>
<path d="M31.5349 88.7715C32.5209 90.5987 33.6769 92.3751 34.9859 94.0839H65.2799V88.7715H31.5349Z" fill="white"/>
<path d="M101.032 94.0839C102.341 92.3751 103.48 90.5987 104.483 88.7715H70.7375V94.0839H101.032Z" fill="white"/>
<path d="M39.7122 99.3964C41.6503 101.274 43.7582 103.051 46.0533 104.726H65.2803V99.4133L39.7122 99.3964Z" fill="white"/>
<path d="M89.9638 104.743C92.2588 103.084 94.3838 101.291 96.3048 99.4132H70.7198V104.743H89.9638Z" fill="white"/>
<path d="M54.7739 110.038C58.0549 111.73 61.5739 113.912 65.2799 115.164V110.021L54.7739 110.038Z" fill="white"/>
<path d="M81.2428 110.038H70.7198V115.164C74.4428 113.912 77.9448 111.73 81.2428 110.038Z" fill="white"/>
<path d="M0 206H136V135.348H0V206Z" fill="#1C1B20"/>
<path d="M83.062 181.874C82.127 181.874 81.005 182.805 80.597 183.312C80.189 183.803 79.101 185.545 79.101 185.545V193.176C79.101 193.176 78.574 193.176 78.319 193.176H77.758C77.282 193.176 77.01 192.888 77.01 192.431V180.758C77.01 180.521 77.01 180.013 77.01 180.013H78.319C78.795 180.013 79.101 180.301 79.101 180.758V182.923L79.288 182.635C80.274 181.113 81.447 180.013 83.164 180.013H83.266C83.521 180.013 83.725 180.098 83.844 180.25C83.946 180.368 84.014 180.554 84.014 180.758V181.891L83.062 181.874Z" fill="white"/>
<path d="M27.2339 186.967C27.2339 191.112 24.5649 193.379 20.6039 193.379C16.4729 193.379 14.0079 191.095 14.0079 186.967V175.868C14.0079 175.411 14.2969 175.124 14.7559 175.124H16.2689C16.2689 175.124 16.2689 175.631 16.2689 175.868V186.967C16.2689 190.164 18.1559 191.399 20.6039 191.399C23.0689 191.399 24.9559 190.164 24.9559 186.967V175.868C24.9559 175.411 25.2449 175.124 25.7039 175.124H27.2339V186.967Z" fill="white"/>
<path d="M61.0808 183.397C61.0808 187.897 58.4118 192.042 57.1198 193.176H54.8418C53.5158 192.042 51.0678 187.897 51.0678 183.397V180.741C51.0678 180.284 51.3398 179.996 51.8158 179.996H52.3768C52.6658 179.996 53.1588 179.996 53.1588 179.996C53.1588 179.996 53.1588 180.555 53.1588 180.741V183.397C53.1588 187.153 54.6548 190.266 56.0828 191.653C57.4938 190.249 59.0068 187.153 59.0068 183.397V180.741C59.0068 180.284 59.2958 179.996 59.7548 179.996H60.3158C60.6048 179.996 61.0978 179.996 61.0978 179.996L61.0808 183.397Z" fill="white"/>
<path d="M69.224 185.647C71.298 185.647 71.893 184.903 71.893 183.6C71.893 182.179 70.924 181.705 69.428 181.705C67.15 181.705 65.841 182.838 65.841 185.478V185.647H69.224ZM63.75 188.1V185.478C63.75 181.891 66.198 179.827 69.411 179.827C72.046 179.827 73.933 180.961 73.933 183.6C73.933 185.935 72.437 187.356 69.802 187.356H65.841V188.1C65.841 190.553 67.337 191.501 69.428 191.501C70.924 191.501 73.202 190.672 73.202 190.672C73.202 190.672 73.202 191.162 73.202 191.332V191.856C73.202 192.33 73.151 192.499 72.743 192.702C72.556 192.803 70.924 193.379 69.428 193.379C66.198 193.362 63.75 191.856 63.75 188.1Z" fill="white"/>
<path d="M87.6348 183.6C87.6348 184.801 88.4508 184.919 89.5218 185.19L91.1368 185.579C93.1938 186.053 94.8088 186.882 94.8088 189.437C94.8088 192.347 92.2758 193.379 89.5048 193.379C87.9068 193.379 86.3768 193.091 86.2068 193.04C85.9858 192.989 85.6288 192.871 85.6288 192.871C85.6288 192.871 85.6288 192.6 85.6288 192.347V191.704C85.6288 191.314 85.9008 191.145 86.2408 191.145C86.3428 191.145 86.3938 191.145 86.4788 191.162C86.6998 191.213 87.9748 191.501 89.5048 191.501C91.5788 191.501 92.7178 190.925 92.7178 189.437C92.7178 188.303 91.7488 187.795 90.6438 187.559L88.6548 187.085C86.8698 186.679 85.5268 185.664 85.5268 183.617C85.5268 181.265 87.5158 179.844 90.6268 179.844C92.2418 179.844 93.3808 180.081 93.5508 180.114C93.8228 180.148 94.1288 180.25 94.1288 180.25C94.1288 180.25 94.1288 180.605 94.1288 180.808V181.485C94.1288 181.874 93.8398 182.009 93.4998 182.009C93.0918 182.009 92.1908 181.722 90.6268 181.722C88.6888 181.688 87.6348 182.263 87.6348 183.6Z" fill="white"/>
<path d="M121.329 189.792L120.394 190.723C119.425 191.687 118.269 192.431 116.552 192.431C114.376 192.431 113.016 191.23 113.016 187.897V180.741C113.016 180.284 113.305 179.996 113.764 179.996H114.342C114.58 179.996 115.09 179.996 115.09 179.996V187.897C115.09 189.894 115.906 190.554 117.13 190.554C118.439 190.554 119.816 189.234 120.564 188.489L121.346 187.711V180.758C121.346 180.301 121.618 180.013 122.094 180.013H122.655C122.91 180.013 123.437 180.013 123.437 180.013C123.437 180.013 123.437 180.538 123.437 180.758V191.501C123.437 196.001 120.768 197.71 116.246 197.71H114.716C114.478 197.71 113.968 197.71 113.968 197.71C113.968 197.71 113.968 197.169 113.968 196.949V196.593C113.968 196.12 114.257 195.815 114.716 195.815H116.246C119.833 195.815 121.346 194.715 121.346 191.67L121.329 189.792Z" fill="white"/>
<path d="M109.939 191.298C110.177 191.298 110.364 191.382 110.5 191.518C110.619 191.653 110.687 191.822 110.687 192.042V193.176C110.687 193.176 110.16 193.176 109.939 193.176H108.8C106.165 193.176 104.448 191.687 104.448 188.845V177.746C104.448 177.526 104.448 177.002 104.448 177.002C104.448 177.002 104.975 177.002 105.196 177.002H105.774C106.233 177.002 106.522 177.289 106.522 177.746V180.013H109.548C110.024 180.013 110.296 180.301 110.296 180.758V181.147C110.296 181.4 110.296 181.891 110.296 181.891C110.296 181.891 109.786 181.891 109.548 181.891H106.522V188.845C106.522 190.367 107.321 191.298 108.8 191.298H109.939Z" fill="white"/>
<path d="M47.8041 176.646C47.8041 177.103 47.5321 177.391 47.0561 177.391H46.4951C46.2571 177.391 45.7131 177.391 45.7131 177.391C45.7131 177.391 45.7131 176.883 45.7131 176.646V175.885C45.7131 175.428 46.0021 175.141 46.4951 175.141H47.8041C47.8041 175.141 47.8041 175.665 47.8041 175.885V176.646ZM47.8041 192.431C47.8041 192.685 47.8041 193.176 47.8041 193.176C47.8041 193.176 47.2771 193.176 47.0561 193.176H46.4951C46.0191 193.176 45.7131 192.888 45.7131 192.431V181.891H44.2341C43.7241 181.891 43.4861 181.62 43.4861 181.147V180.013C43.4861 180.013 43.9961 180.013 44.2171 180.013H47.0391C47.5321 180.013 47.7871 180.301 47.7871 180.758L47.8041 192.431Z" fill="white"/>
<path d="M101.065 176.646C101.065 177.103 100.793 177.391 100.317 177.391H99.7559C99.5179 177.391 98.9909 177.391 98.9909 177.391V175.868C98.9909 175.411 99.2799 175.124 99.7559 175.124H101.065C101.065 175.124 101.065 175.648 101.065 175.868V176.646ZM101.065 192.431C101.065 192.685 101.065 193.176 101.065 193.176C101.065 193.176 100.538 193.176 100.317 193.176H99.7559C99.2799 193.176 98.9909 192.888 98.9909 192.431V181.891H97.5119C97.0019 181.891 96.7639 181.62 96.7639 181.147V180.013C96.7639 180.013 97.2569 180.013 97.4949 180.013H100.334C100.81 180.013 101.082 180.301 101.082 180.757L101.065 192.431Z" fill="white"/>
<path d="M32.7078 182.466L33.6428 181.519C34.5948 180.588 35.7168 179.81 37.4168 179.81C39.4908 179.81 41.0038 180.943 41.0038 184.327V193.159C41.0038 193.159 40.4938 193.159 40.2558 193.159H39.6948C39.2188 193.159 38.9298 192.871 38.9298 192.414V184.327C38.9298 182.263 37.9778 181.688 36.8728 181.688C35.5468 181.688 34.2038 183.007 33.4558 183.752L32.7078 184.53V193.176H31.3818C30.9058 193.176 30.6338 192.888 30.6338 192.431V180.013H31.9428C32.4188 180.013 32.7248 180.3 32.7248 180.757L32.7078 182.466Z" fill="white"/>
<path d="M37.5192 165.852L36.5842 166.817C35.6152 167.764 34.5102 168.509 32.7932 168.509C30.7192 168.509 29.2232 167.375 29.2232 163.974V155.887C29.2232 155.431 29.5122 155.143 29.9712 155.143H30.5492C30.7872 155.143 31.2972 155.143 31.2972 155.143C31.2972 155.143 31.2972 155.684 31.2972 155.887V163.974C31.2972 166.038 32.2322 166.631 33.3712 166.631C34.6802 166.631 36.0062 165.311 36.7542 164.567L37.5362 163.822V155.904C37.5362 155.448 37.8082 155.16 38.2842 155.16H38.8452C39.1002 155.16 39.6272 155.16 39.6272 155.16V167.578C39.6272 168.035 39.3382 168.322 38.8452 168.322H38.2842C38.0462 168.322 37.5362 168.322 37.5362 168.322C37.5362 168.322 37.5362 167.815 37.5362 167.578L37.5192 165.852Z" fill="white"/>
<path d="M49.045 157.021C48.093 157.021 46.988 157.951 46.58 158.442C46.172 158.933 45.084 160.675 45.084 160.675V168.306C45.084 168.306 44.557 168.306 44.302 168.306H43.741C43.265 168.306 42.993 168.018 42.993 167.561V155.143H44.302C44.778 155.143 45.084 155.431 45.084 155.887V158.053L45.271 157.765C46.257 156.243 47.43 155.143 49.147 155.143H49.249C49.504 155.143 49.691 155.228 49.827 155.38C49.929 155.515 49.997 155.684 49.997 155.887V157.021H49.045Z" fill="white"/>
<path d="M57.5619 166.428C57.7999 166.428 57.9869 166.512 58.1229 166.647C58.2419 166.766 58.3099 166.952 58.3099 167.172V168.305C58.3099 168.305 57.7829 168.305 57.5619 168.305H56.4229C53.7879 168.305 52.0709 166.817 52.0709 163.974V152.131H53.3969C53.8559 152.131 54.1449 152.419 54.1449 152.876V155.143H57.1709C57.6469 155.143 57.9189 155.43 57.9189 155.887V156.276C57.9189 156.53 57.9189 157.021 57.9189 157.021C57.9189 157.021 57.4089 157.021 57.1709 157.021H54.1449V163.974C54.1449 165.497 54.9439 166.428 56.4229 166.428H57.5619Z" fill="white"/>
<path d="M64.6167 151.776C64.6167 152.233 64.3447 152.521 63.8687 152.521H63.3077C63.0697 152.521 62.5257 152.521 62.5257 152.521C62.5257 152.521 62.5257 152.013 62.5257 151.776V150.998C62.5257 150.541 62.8147 150.253 63.3077 150.253H64.5997C64.5997 150.253 64.5997 150.778 64.5997 150.998L64.6167 151.776ZM64.6167 167.561C64.6167 167.815 64.6167 168.306 64.6167 168.306C64.6167 168.306 64.0897 168.306 63.8687 168.306H63.3077C62.8317 168.306 62.5257 168.018 62.5257 167.561V157.021H61.0467C60.5367 157.021 60.2987 156.75 60.2987 156.276V155.143C60.2987 155.143 60.7917 155.143 61.0297 155.143H63.8517C64.3277 155.143 64.5997 155.431 64.5997 155.887L64.6167 167.561Z" fill="white"/>
<path d="M70.0912 157.596L71.0262 156.665C71.9612 155.718 73.1002 154.957 74.8002 154.957C76.8742 154.957 78.3702 156.09 78.3702 159.491V167.578C78.3702 167.815 78.3702 168.322 78.3702 168.322C78.3702 168.322 77.8602 168.322 77.6222 168.322H77.0612C76.5852 168.322 76.2792 168.035 76.2792 167.578V159.491C76.2792 157.427 75.3272 156.835 74.2222 156.835C72.8962 156.835 71.5532 158.154 70.8052 158.899L70.0572 159.677V167.578C70.0572 167.832 70.0572 168.322 70.0572 168.322C70.0572 168.322 69.5132 168.322 69.2922 168.322H68.7312C68.2552 168.322 67.9832 168.035 67.9832 167.578V155.143C67.9832 155.143 68.4762 155.143 68.7312 155.143H69.2922C69.7682 155.143 70.0742 155.43 70.0742 155.887L70.0912 157.596Z" fill="white"/>
<path d="M24.0721 150.236C24.1061 150.236 24.1401 150.254 24.1741 150.254C24.1401 150.254 24.1061 150.254 24.0721 150.236Z" fill="white"/>
<path d="M21.8109 152.047C22.6269 152.047 23.2729 152.115 23.9189 152.25C24.6329 152.419 25.2449 152.69 25.6189 152.808C25.7719 152.859 25.8569 152.876 25.9589 152.876C26.1969 152.876 26.3669 152.724 26.3669 152.402V151.624C26.3669 151.353 26.3669 150.947 26.3669 150.947C26.3669 150.947 26.3499 150.947 26.3499 150.93C26.2819 150.896 26.0609 150.795 25.8909 150.744C25.6189 150.643 24.9729 150.423 24.1739 150.27C24.1399 150.27 24.1059 150.253 24.0719 150.253C23.7829 150.203 23.4939 150.152 23.1879 150.135C23.1709 150.135 23.1539 150.135 23.1369 150.135C22.8309 150.101 22.5249 150.084 22.2189 150.084C16.9149 150.084 13.5319 152.91 13.5319 158.171V160.438C13.5319 165.125 15.9799 168.525 21.4709 168.525H22.6099C24.0209 168.525 25.4659 168.035 25.9079 167.883C26.0949 167.815 26.4009 167.68 26.4009 167.68C26.4009 167.68 26.4009 167.29 26.4009 167.003V166.394C26.4009 166.055 26.2309 165.92 25.9929 165.92C25.8909 165.92 25.8059 165.937 25.6529 165.988C25.0749 166.174 23.8339 166.546 22.6269 166.546H21.4879C17.8839 166.546 15.8099 164.38 15.8099 160.438V158.171C15.7589 153.756 18.4279 152.047 21.8109 152.047Z" fill="white"/>
</g>
<defs>
<clipPath id="clip0">
<rect width="136" height="206" fill="white"/>
</clipPath>
</defs>
</svg>
